<svg width="18" height="18" viewBox="0 0 18 18" fill="none" xmlns="http://www.w3.org/2000/svg">
<g clip-path="url(#clip0_2_1538)">
<path opacity="0.3" d="M9 18C13.9708 18 18 13.9708 18 9C18 4.02918 13.9695 0 9 0C4.0305 0 0 4.02918 0 9C0 13.9708 4.02918 18 9 18Z" fill="#00D180"/>
<path d="M9 18C13.9708 18 18 13.9708 18 9C18 4.02918 13.9695 0 9 0C4.0305 0 0 4.02918 0 9C0 13.9708 4.02918 18 9 18Z" fill="#00D180"/>
<path d="M8 6L11 9L8 12" stroke="black" stroke-width="2" stroke-linecap="round" stroke-linejoin="round"/>
</g>
<defs>
<clipPath id="clip0_2_1538">
<rect width="18" height="18" fill="white"/>
</clipPath>
</defs>
</svg>
