<svg width="24" height="24" viewBox="0 0 24 24" fill="none" xmlns="http://www.w3.org/2000/svg">
<path d="M9.72727 9.32V7.4C9.72727 6.76348 9.96672 6.15303 10.3929 5.70294C10.8192 5.25286 11.3972 5 12 5C12.6028 5 13.1808 5.25286 13.6071 5.70294C14.0333 6.15303 14.2727 6.76348 14.2727 7.4V9.32M7.45455 9.32H16.5455C16.7965 9.32 17 9.5349 17 9.8V16.52C17 16.7851 16.7965 17 16.5455 17H7.45455C7.20351 17 7 16.7851 7 16.52V9.8C7 9.5349 7.20351 9.32 7.45455 9.32Z" stroke="#5100c0" stroke-width="1.5" stroke-linecap="round" stroke-linejoin="round"/>
<circle cx="12" cy="13" r="1" fill="#5100c0"/>
</svg>
